<svg xmlns="http://www.w3.org/2000/svg" viewBox="0 0 100 25">
    <path fill="#00b1ea" d="M19.24.73C9.67.73 1.91 5.7 1.91 11.82c0 6.12 7.76 11.57 17.33 11.57 9.57 0 17.34-5.45 17.34-11.57S28.82.73 19.24.73Z"/>
    <path fill="#fff" d="M13.6 8.4c0 .01-.17.18-.07.33.27.34 1.1.53 1.94.35.5-.12 1.13-.62 1.75-1.12.67-.53 1.34-1.06 2-1.27a2.3 2.3 0 0 1 1.47-.04c.33.1.71.31 1.33.78 1.16.87 5.84 4.95 6.65 5.66.65-.3 3.74-1.55 7.67-2.42a9.41 9.41 0 0 0-3.53-5.66c-2.7 1.14-6.2 1.81-9.42.24-.02 0-1.76-.83-3.48-.79-2.55.07-3.66 1.17-4.83 2.34L13.6 8.4Z"/>
    <path fill="#fff" d="M28.48 13.53c-.06-.05-5.5-4.8-6.73-5.73-.71-.54-1.1-.67-1.52-.73a2.2 2.2 0 0 0-.73.07 6.6 6.6 0 0 0-2 1.19 5.62 5.62 0 0 1-1.93 1.2 3.13 3.13 0 0 1-2.14-.32.96.96 0 0 1-.36-.4c-.16-.36.14-.66.19-.7l1.5-1.63.53-.52c-.49.07-.93.19-1.37.31-.55.15-1.07.3-1.6.3-.22 0-1.4-.2-1.63-.25-1.36-.38-2.9-.74-4.68-1.57-2.13 1.6-3.52 3.54-3.93 5.73.3.08 1.1.26 1.31.3 4.83 1.08 6.34 2.19 6.6 2.42a1.6 1.6 0 0 1 2.5.15 1.84 1.84 0 0 1 1.85-.29c.55.19.83.55.97.88.18-.08.41-.14.67-.14.27 0 .54.06.8.18.9.38 1.04 1.25.95 1.91h.2a1.92 1.92 0 0 1 1.68 2.81c.29.16 1.02.53 1.66.45.51-.07.71-.24.78-.34.05-.07.1-.15.05-.2l-1.36-1.52s-.22-.2-.15-.29c.08-.08.22.04.31.12.7.58 1.54 1.45 1.54 1.45.01 0 .07.12.38.18.27.04.75.02 1.08-.25.09-.07.17-.16.24-.25l-.02.02c.35-.45-.04-.9-.04-.9l-1.58-1.79s-.23-.2-.16-.29c.07-.07.22.04.32.12.5.42 1.22 1.14 1.9 1.8.13.1.73.47 1.52-.05.48-.32.58-.7.56-1-.03-.38-.33-.66-.33-.66l-2.18-2.18s-.23-.2-.14-.3c.06-.08.21.04.3.12.7.58 2.57 2.3 2.57 2.3.03.01.68.48 1.47-.03a.99.99 0 0 0 .49-.78c.05-.57-.34-.9-.34-.9Z"/>
    <path fill="#fff" d="M17.94 16.3c-.34 0-.7.2-.76.17-.02-.02.03-.15.06-.23.03-.08.47-1.41-.61-1.88-.83-.35-1.33.05-1.5.23-.05.04-.07.04-.08-.02-.01-.24-.12-.9-.84-1.1a1.64 1.64 0 0 0-1.84.65 1.18 1.18 0 1 0-.35 1v.04c-.05.3-.14 1.36.98 1.8.44.17.82.04 1.14-.18.1-.07.1-.04.1.05-.04.27 0 .86.83 1.2.62.25 1-.01 1.23-.24.1-.1.14-.08.14.07a1.49 1.49 0 0 0 2.98-.06c0-.84-.66-1.5-1.48-1.5Z"/>
    <path fill="#2d3277" d="M19.24.28C9.5.28 1.58 5.47 1.58 11.83v.68c0 6.75 6.91 12.21 17.66 12.21 10.82 0 17.67-5.46 17.67-12.21v-.68C36.9 5.46 29 .28 19.23.28Zm16.87 10.27c-3.84.85-6.7 2.09-7.42 2.41a231.27 231.27 0 0 0-6.6-5.62 4.63 4.63 0 0 0-1.37-.8c-.16-.04-.38-.1-.67-.1-.27 0-.55.05-.85.14-.68.22-1.36.75-2 1.27l-.04.03a5.5 5.5 0 0 1-1.72 1.1c-.2.04-.42.06-.63.06-.53 0-1.01-.15-1.19-.38-.03-.04 0-.1.06-.2l1.48-1.6c1.16-1.15 2.25-2.24 4.76-2.3h.12c1.57 0 3.13.7 3.3.78a10.2 10.2 0 0 0 4.5 1.08c1.58 0 3.21-.39 4.92-1.18a9.28 9.28 0 0 1 3.35 5.3ZM19.24.95c5.18 0 9.81 1.5 12.93 3.83-1.51.65-2.95.98-4.33.98a9.57 9.57 0 0 1-4.21-1.02 9.44 9.44 0 0 0-3.6-.85h-.13a6.2 6.2 0 0 0-4.1 1.46c-.77.02-1.44.2-2.04.37-.53.15-1 .28-1.44.28l-.54-.02c-.52-.02-3.1-.65-5.16-1.43 3.1-2.2 7.61-3.6 12.62-3.6ZM6.01 5.03c2.15.88 4.76 1.56 5.6 1.61.22.02.47.05.71.05a6 6 0 0 0 1.63-.3c.31-.1.66-.19 1.02-.26l-.29.3-1.5 1.61c-.12.12-.37.44-.2.83.06.16.2.3.4.44a3.13 3.13 0 0 0 2.21.33c.63-.14 1.3-.66 1.99-1.22a6.6 6.6 0 0 1 1.95-1.16 2.17 2.17 0 0 1 .68-.07c.4.05.79.19 1.48.7 1.23.93 6.67 5.69 6.72 5.73 0 0 .35.3.33.8a.87.87 0 0 1-.44.7c-.23.15-.47.22-.71.22-.37 0-.62-.17-.63-.18-.03-.02-1.89-1.73-2.57-2.3-.11-.1-.22-.17-.32-.17a.2.2 0 0 0-.15.06c-.1.13.02.32.16.44l2.18 2.18s.27.26.3.6c.02.36-.15.66-.51.9a1.4 1.4 0 0 1-.78.25c-.33 0-.56-.15-.61-.2l-.32-.3c-.57-.56-1.16-1.14-1.59-1.5-.1-.09-.22-.17-.32-.17-.06 0-.1.02-.14.06-.05.06-.09.15.04.32a1 1 0 0 0 .1.12l1.6 1.78c0 .02.32.4.03.77l-.06.06-.14.15a1.29 1.29 0 0 1-1 .23c-.15-.03-.26-.08-.3-.13l-.03-.03c-.09-.09-.89-.9-1.55-1.45-.09-.08-.2-.17-.3-.17-.07 0-.11.02-.15.07-.13.14.06.36.15.43l1.36 1.5-.06.09c-.04.06-.2.23-.7.3h-.18a3.1 3.1 0 0 1-1.33-.39 2.02 2.02 0 0 0-1.82-2.88h-.08c.04-.51-.03-1.47-1.02-1.9a2.17 2.17 0 0 0-.85-.18c-.21 0-.42.04-.62.11a1.7 1.7 0 0 0-.99-.84 2.2 2.2 0 0 0-.72-.13c-.41 0-.8.13-1.13.37a1.71 1.71 0 0 0-2.54-.14c-.42-.33-2.1-1.39-6.58-2.4l-1-.29c.42-2 1.7-3.85 3.58-5.35Zm8.3 11.66-.04-.05h-.05c-.04 0-.09.02-.14.06-.23.16-.45.24-.67.24-.12 0-.25-.03-.38-.08-1.03-.4-.95-1.38-.9-1.68 0-.06 0-.1-.04-.13l-.08-.07-.07.07a1.08 1.08 0 1 1-.74-1.85c.54 0 1 .4 1.06.94l.04.29.16-.25c.02-.03.45-.69 1.25-.69.16 0 .31.03.47.07.64.2.75.78.77 1.02 0 .14.1.14.13.14.05 0 .09-.03.12-.06.12-.13.38-.33.8-.33.18 0 .38.04.59.13 1.01.44.55 1.72.55 1.74-.09.2-.1.3-.01.36l.04.02h.03a.6.6 0 0 0 .2-.05c.13-.05.34-.13.53-.13.77.01 1.39.64 1.39 1.4a1.39 1.39 0 0 1-2.77.05c0-.06 0-.23-.15-.23-.06 0-.1.03-.17.08a.98.98 0 0 1-.68.31c-.14 0-.29-.03-.45-.1-.78-.31-.8-.85-.76-1.07.01-.04.02-.1-.03-.15Zm4.93 6c-9.38 0-16.98-4.86-16.98-10.86 0-.24.02-.48.04-.72l.97.23c4.58 1.02 6.09 2.08 6.34 2.28a1.72 1.72 0 0 0 1.9 2.34 2 2 0 0 0 1.91 1.61c.13 0 .26-.02.39-.05.13.33.42.73 1.07 1 .22.09.45.14.67.14.17 0 .35-.03.52-.1a2.02 2.02 0 0 0 3.32.64c.32.18 1 .51 1.7.51l.27-.01c.68-.09 1-.36 1.16-.57a.73.73 0 0 0 .07-.12c.16.05.34.09.55.09.38 0 .74-.13 1.1-.4.36-.26.62-.63.66-.94v-.02c.12.03.25.04.37.04.39 0 .77-.12 1.13-.36.7-.46.83-1.06.82-1.46a1.85 1.85 0 0 0 1.44-.29c.43-.27.7-.7.74-1.2.02-.34-.06-.68-.23-.98 1.17-.5 3.87-1.49 7.04-2.2l.02.54c0 6-7.6 10.87-16.99 10.87ZM97.46 3.83c-.64-.8-1.62-1.2-2.92-1.2-1.3 0-2.28.4-2.92 1.2-.64.8-.96 1.75-.96 2.85 0 1.11.32 2.06.96 2.86.64.79 1.62 1.18 2.92 1.18 1.3 0 2.28-.4 2.92-1.18.64-.8.96-1.75.96-2.86 0-1.1-.32-2.05-.96-2.85Zm-1.59 4.61c-.31.41-.76.62-1.34.62a1.6 1.6 0 0 1-1.34-.62c-.31-.41-.47-1-.47-1.76s.16-1.35.47-1.76c.31-.41.76-.62 1.34-.62.59 0 1.03.21 1.34.62.31.41.47 1 .47 1.76a2.9 2.9 0 0 1-.47 1.76ZM81.07 3.16c-.65-.33-1.4-.5-2.23-.5-1.3 0-2.2.34-2.73 1-.33.44-.52.99-.56 1.65h1.92c.05-.29.14-.52.28-.7.2-.23.54-.35 1.02-.35.42 0 .75.06.97.18.21.12.33.33.33.64 0 .26-.15.45-.43.57-.16.07-.43.13-.8.17l-.69.09c-.77.1-1.36.26-1.76.49-.73.42-1.09 1.1-1.09 2.03 0 .73.23 1.29.68 1.68.45.4 1.03.56 1.72.6 4.35.19 4.3-2.3 4.34-2.82V5.03c0-.92-.33-1.54-.97-1.87ZM80.05 7.5c-.01.67-.2 1.13-.57 1.38-.37.25-.77.38-1.2.38-.28 0-.51-.08-.7-.23-.2-.16-.3-.4-.3-.74a.9.9 0 0 1 .48-.85c.19-.1.49-.2.92-.27l.45-.08.54-.14c.13-.05.26-.12.38-.2v.75ZM71.14 4.37c.5 0 .86.15 1.1.46.16.22.27.48.3.76h2.15c-.12-1.08-.5-1.84-1.13-2.26a4.4 4.4 0 0 0-2.47-.65 3.6 3.6 0 0 0-2.78 1.1c-.68.72-1.01 1.73-1.01 3.04 0 1.15.3 2.1.91 2.82.6.72 1.56 1.08 2.85 1.08s2.26-.43 2.92-1.3c.41-.54.64-1.1.7-1.71h-2.15c-.04.4-.17.72-.37.97-.21.26-.56.38-1.05.38a1.4 1.4 0 0 1-1.41-.95 3.6 3.6 0 0 1-.21-1.34c0-.58.07-1.05.2-1.4.26-.67.75-1 1.45-1ZM66.72 2.69c-4.4 0-4.15 3.9-4.15 3.9v3.96h2V6.83c0-.6.08-1.06.23-1.35.28-.52.81-.78 1.61-.78h.24l.34.04V2.7l-.17-.01h-.1ZM60.97 4.17a3.13 3.13 0 0 0-1.31-1.13 4.37 4.37 0 0 0-1.79-.35c-1.11 0-2.02.35-2.72 1.05-.7.7-1.05 1.7-1.05 3.02 0 1.41.39 2.43 1.16 3.05.78.62 1.67.94 2.68.94 1.23 0 2.18-.37 2.86-1.11.37-.4.6-.78.7-1.16h-2.13c-.08.13-.17.23-.27.3-.28.24-.67.31-1.12.31a1.9 1.9 0 0 1-1.06-.25c-.5-.31-.79-.83-.82-1.6h5.54c0-.65-.01-1.16-.06-1.5-.1-.6-.3-1.12-.61-1.57Zm-4.82 1.76c.07-.49.25-.88.53-1.17.28-.3.68-.44 1.19-.44.47 0 .86.14 1.18.41.31.28.49.68.52 1.2h-3.42ZM50.13 2.66c-.93 0-1.73.41-2.27 1.06a2.81 2.81 0 0 0-2.28-1.06c-1.95 0-3.2 1.44-3.2 3.34v4.55h1.82v-4.6c0-.83.57-1.42 1.38-1.42 1.2 0 1.33 1 1.33 1.42v4.6h1.83v-4.6c0-.83.58-1.42 1.39-1.42 1.2 0 1.34 1 1.34 1.42v4.6h1.83V6c0-1.96-1.18-3.34-3.17-3.34ZM88.02 1.69v2.14a2.42 2.42 0 0 0-2.1-1.14c-1 0-1.8.37-2.4 1.11-.59.75-.89 1.82-.89 3.12 0 1.12.3 2.04.91 2.76.6.72 1.8 1.04 2.85 1.04 3.7 0 3.65-3.16 3.65-3.16V.29s-2.02-.22-2.02 1.4Zm-.38 6.77c-.3.42-.72.63-1.28.63a1.4 1.4 0 0 1-1.26-.64 3.21 3.21 0 0 1-.42-1.73c0-.65.13-1.2.4-1.64.28-.44.7-.66 1.28-.66.39 0 .72.12 1.01.37.47.4.7 1.11.7 2.04.01.67-.14 1.2-.43 1.63ZM46.6 13.61c-1.65-.07-2.48.32-3.02.73-.75.57-1.2 1.42-1.2 2.77v6.95h.96c.26 0 .52-.09.71-.26.21-.2.32-.44.32-.72v-2.6c.24.4.55.7.94.9.37.18.8.26 1.3.26.92 0 1.67-.37 2.26-1.1.6-.76.89-1.74.89-2.96 0-1.18-.28-2.09-.95-2.9a3.05 3.05 0 0 0-2.21-1.07Zm.68 5.7c-.3.41-.7.62-1.2.62-.56 0-.98-.2-1.27-.61-.3-.37-.44-.92-.44-1.66 0-.79.14-1.37.4-1.74.3-.4.71-.6 1.24-.6.55 0 .97.2 1.27.6.3.4.44.99.44 1.74 0 .7-.15 1.25-.44 1.66ZM63.78 14.33a3.67 3.67 0 0 0-2.57-.75c-1.21.03-2.1.37-2.64 1.12a4.78 4.78 0 0 0-.82 2.9c0 1.03.2 1.86.62 2.49.41.63.9 1.05 1.49 1.28.57.24 1.15.29 1.74.15a2.2 2.2 0 0 0 1.4-1.01V21a2.38 2.38 0 0 1-.45 1.4c-.26.3-.55.49-.86.55a1.5 1.5 0 0 1-.95-.11 1.45 1.45 0 0 1-.71-.63h-2.11c.55 1.65 1.52 2.37 3.3 2.5 2.84.2 3.75-2.2 3.75-3.5v-4.1c0-1.35-.44-2.21-1.19-2.78Zm-.84 4.02c-.07.45-.2.79-.37 1-.37.5-.94.68-1.7.54-.78-.15-1.16-.89-1.16-2.22 0-.62.11-1.17.34-1.66.23-.48.68-.72 1.34-.72.48 0 .84.17 1.09.52.25.35.41.74.48 1.19.07.44.06.9-.02 1.35ZM56.03 14.13c-.64-.33-1.39-.5-2.23-.5-1.28 0-2.2.34-2.72 1-.33.44-.52.99-.56 1.65h1.92c.05-.3.14-.53.28-.7.2-.23.54-.35 1.02-.35.42 0 .74.06.97.18.21.12.32.33.32.65 0 .25-.14.44-.42.56-.16.07-.43.13-.8.18l-.68.08c-.78.1-1.37.26-1.76.49-.73.42-1.1 1.1-1.1 2.03 0 .73.23 1.29.68 1.68.45.4 1.03.56 1.72.6 4.35.19 4.3-2.3 4.34-2.82V16c0-.91-.32-1.54-.98-1.87Zm-1 4.34c-.02.67-.21 1.13-.58 1.38s-.77.38-1.2.38c-.28 0-.51-.08-.7-.23-.2-.15-.3-.4-.3-.74a.9.9 0 0 1 .48-.85c.19-.1.49-.2.92-.27l.45-.08c.23-.05.4-.09.53-.14.13-.05.26-.11.39-.2v.75ZM72.53 14.76c-.64-.8-1.61-1.2-2.92-1.2-1.3 0-2.28.4-2.92 1.2-.64.8-.96 1.75-.96 2.85s.32 2.06.96 2.86c.64.78 1.62 1.18 2.92 1.18 1.3 0 2.28-.4 2.92-1.18.64-.8.97-1.75.97-2.86 0-1.1-.33-2.05-.97-2.85Zm-1.59 4.6c-.3.42-.75.63-1.33.63-.58 0-1.03-.2-1.35-.62-.31-.41-.47-1-.47-1.76s.16-1.35.47-1.76c.31-.4.77-.61 1.35-.61.58 0 1.02.2 1.33.61.32.41.47 1 .47 1.76s-.16 1.35-.47 1.76Z"/>
</svg>
