<svg width="144" height="40" xmlns="http://www.w3.org/2000/svg">
    <path fill="#ff0054" d="M19.654 0H0s0 .784.004.824a4.215 4.215 0 0 0 4.214 4.098h15.436V0ZM4.976 7.364s0 .784.004.824a4.215 4.215 0 0 0 4.214 4.098h10.478V7.364H4.976ZM9.845 14.736s0 .785.004.824a4.215 4.215 0 0 0 4.214 4.099h5.61v-4.923H9.844Z"/>
    <path fill="#09097d" d="M63.86 10.961c-1.109-1.94-3.607-3.167-6.222-3.167-5.702-.04-10.181 3.486-10.181 10.221 0 6.854 4.28 10.417 10.062 10.377 2.18-.04 5.228-1.148 6.34-3.447l.24 2.853h4.554V8.268H64.02l-.16 2.693Zm-5.783 12.996c-3.208 0-5.782-2.22-5.782-5.942s2.574-5.902 5.782-5.902c7.603-.004 7.603 11.844 0 11.844ZM83.35 16.823l-2.021 5.388-1.865-5.507-2.969-8.436h-5.627l7.807 19.211-3.646 8.48h5.308L92.26 8.268h-5.348zM109.45 6.287l-1.94 2.455c-1.347-.913-2.933-1.108-4.475-1.108-5.973 0-10.718 4.541-9.787 11.657.629 4.798 4.913 8.095 9.752 8.073 2.428-.01 4.984 1.214 4.984 3.92 0 2.695-2.18 4.201-4.953 4.201-2.774 0-5.109-1.661-5.109-4.2h-4.794c0 5.268 4.24 8.715 9.903 8.715 5.666 0 9.782-3.327 9.782-8.715 0-2.495-.793-4.834-4.04-6.456 3.208-1.466 4.12-4.873 4.12-7.288 0-2.14-.554-4.08-2.06-5.782l2.18-2.774-3.562-2.698Zm-6.415 16.677c-2.813 0-5.109-2.02-5.109-5.427 0-3.408 2.3-5.508 5.109-5.508 2.774 0 5.069 2.14 5.069 5.508 0 3.367-2.3 5.427-5.069 5.427ZM125.175 7.873c-6.22 0-10.102 4.595-10.102 10.182 0 5.627 3.802 10.182 10.142 10.182s10.182-4.555 10.182-10.182c0-5.587-4.001-10.182-10.222-10.182Zm.04 15.924c-3.527 0-5.308-2.774-5.308-5.742 0-2.933 1.821-5.782 5.308-5.782 3.248 0 5.308 2.853 5.308 5.782 0 2.968-1.781 5.742-5.308 5.742ZM138.72.106h4.794v27.692h-4.794z"/>
    <path fill="#09097d" d="M36.012.031c-4.355 0-8.715.04-13.07.04v28.29h.749c.044 0 .084 0 .124-.005a4.472 4.472 0 0 0 4.35-4.475v-4.244h7.843c13.593 0 13.553-19.606.004-19.606Zm0 14.812H28.17V5.02h7.842c6.655 0 6.695 9.823 0 9.823Z"/>
</svg>
