<svg xmlns="http://www.w3.org/2000/svg" viewBox="0 0 315 41">
    <path fill="#fff" d="M85 10.6C85 8.4 83.5 7 81.5 7h-5.8v7h5.8c2 .1 3.5-1.3 3.5-3.4M67.5 31.7V0h15c6.7 0 10.3 4.8 10.3 10.6 0 5.7-3.6 10.5-10.3 10.5h-6.8v10.6h-8.2zm39.5-6v-2c-.8-1-2.3-1.6-3.8-1.6-1.8 0-3.4.9-3.4 2.7 0 1.8 1.6 2.7 3.4 2.7 1.5-.2 2.9-.7 3.8-1.8m0 6v-2.4c-1.6 1.7-3.9 2.8-6.7 2.8-3.3 0-7.4-2.4-7.4-7.6 0-5.6 4.1-7.4 7.4-7.4 2.8 0 5 1 6.7 2.7V17c0-2-1.6-3.3-4.3-3.3-2.1 0-4.4.9-6.1 2.4l-2.4-4.6c2.8-2.5 6.3-3.6 9.6-3.6 5.2 0 9.9 2 9.9 9.2v14.5l-6.7.1zm10.3 2.4c.5.3 1.2.4 1.7.4 1.6 0 2.5-.4 2.9-1.3l.5-1.1L113.6 9l7.2-.1 5 14.5 4.7-14.6 7.2-.1-9.4 26.2c-1.7 4.9-4.9 5.9-9 6.1-.6 0-2.2-.1-2.9-.4l.9-6.5zm48.9-2.4V17.6c0-1.8-.7-3.1-2.8-3.1-1.9 0-3 1.3-3.8 2.2v15h-7.4V17.6c0-1.8-.7-3.1-2.8-3.1-1.8 0-3 1.3-3.8 2.2v15H139V8.8h6.6v2.6c1.6-1.3 3.8-3.4 7.2-3.4 3.1 0 5.3 1.4 6.2 4.1 1.2-2 4-4.1 7.4-4.1 4 0 6.4 2.2 6.4 6.9v16.8h-6.6zm20.5-18c-3 0-4.1 2.2-4.4 3.9h8.8c-.2-1.8-1.3-3.9-4.4-3.9m-11.5 6.4c0-6.7 4.7-12 11.4-12 6.4 0 10.9 5 10.9 12.8V22h-15.2c.4 2.6 2.3 4.3 5.4 4.3 1.5 0 4.1-.6 5.3-1.9l2.9 4.6c-2.1 2-5.7 3.1-9 3.1-6.6 0-11.7-4.6-11.7-12M214 31.7V18.3c0-2.8-1.2-3.8-3.4-3.8-2 0-3.2 1.2-4 2.2v15H200V8.8h6.6v2.6c1.6-1.6 4-3.4 7.6-3.4 4.9 0 7.3 3 7.3 7.3v16.4H214zm11.5-6.3V15h-3.3V8.8h3.3V2.6h7.4v6.2h4.1V15h-4.1v8.4c0 1.3.6 2.3 1.8 2.3.8 0 1.5-.3 1.7-.6l1.3 5.5c-.8.9-2.7 1.5-5.3 1.5-4.3 0-6.9-2.3-6.9-6.7m34.4 6.3l-4-14.2-4.1 14.2h-7.3l-6.4-22.9h7l3.5 14.1 4.2-14.1h6.1l4.2 14.1 3.5-14.1h7l-6.3 22.9zm27.4-6v-2c-.8-1-2.2-1.6-3.7-1.6-1.8 0-3.4.9-3.4 2.7 0 1.8 1.5 2.7 3.4 2.7 1.4-.2 2.8-.7 3.7-1.8m0 6v-2.4c-.8 1.7-3.8 2.8-6.6 2.8-3.3 0-7.3-2.4-7.3-7.6 0-5.6 4-7.4 7.3-7.4 2.8 0 5.8 1 6.6 2.7V17c0-2-1.5-3.3-4.3-3.3-2.1 0-4.3.9-6 2.4l-2.4-4.6c2.8-2.5 6.7-3.6 9.9-3.6 5.2 0 10.2 2 10.2 9.2v14.5l-7.4.1zM307.9 0h6.6v31.7h-6.6zM298 0h6.6v31.7H298z"/>
    <path fill="#ffc013" d="M39.1 31.5l3.2-8.9h12l3.2 8.9zm-19.2 0l3.2-8.9h12.1l3.2 8.9zm9.6-11.3l3.2-8.8h11.9l3.2 8.8zm-19.3 0l3.2-8.8h12l3.2 8.8zM.6 31.5l3.2-8.9h12l3.2 8.9zM19.9 9.3L23.1.5h12l3.2 8.8z"/>
</svg>
