<svg version="1.1" xmlns="http://www.w3.org/2000/svg" viewBox="0 0 1024 182">
  <path fill="#008ac9" d="M187.894,81.84c-0.114,-3.515 -1.771,-5.329 -4.988,-5.448l-17.183,0c-4.067,0.249 -6.169,2.48 -6.266,6.677l0,30.906c0.097,4.333 2.421,6.542 6.937,6.667l15.748,0c1.636,0 2.995,-0.607 4.078,-1.847c1.132,-0.931 1.674,-2.128 1.674,-3.612l0,-33.343Zm-50.5,-4.387c0.114,-7.733 1.836,-13.609 5.178,-17.627c1.749,-1.684 3.937,-3.093 6.601,-4.257c2.767,-1.24 5.448,-1.841 8.047,-1.841l31.54,0c13.913,0.119 20.985,7.728 21.207,22.842l0,46.519c-0.103,5.367 -2.204,10.025 -6.265,13.918c-4.024,4.094 -8.828,6.179 -14.422,6.304l-29.823,0l0,33.538l-22.063,0l0,-99.396"/>
  <path fill="#008ac9" d="M249.793,116.152c0,1.295 0.595,2.318 1.76,3.087c1.04,0.921 2.35,1.403 4.007,1.403l16.945,0c3.829,0 5.817,-1.484 5.93,-4.49l0,-6.325c0,-3.455 -2.02,-5.199 -6.092,-5.199l-16.783,0c-2.209,0 -3.736,0.368 -4.587,1.062c-0.785,0.817 -1.18,2.436 -1.18,4.836l0,5.626Zm28.642,-34.859c0.114,-3.39 -1.863,-5.01 -5.935,-4.901l-44.434,0l0,-22.664l50.028,0c14.573,0.238 21.971,7.278 22.22,21.18l0,47.412c-0.125,5.995 -1.96,10.94 -5.524,14.871c-3.726,4.073 -8.529,6.12 -14.416,6.12l-30.24,0c-14.719,-0.125 -22.182,-6.845 -22.409,-20.205l0,-18.294c0.113,-13.961 7.246,-21.055 21.364,-21.299l29.346,0l0,-2.22"/>
  <path fill="#008ac9" d="M362.278,154.18c1.749,-0.108 3.265,-0.737 4.495,-1.863c1.18,-1.051 1.776,-2.258 1.776,-3.628l0,-5.378l-28.247,0c-3.683,0 -6.629,-0.471 -8.827,-1.408c-2.324,-0.85 -4.636,-2.437 -6.965,-4.69c-2.204,-2.388 -3.791,-4.885 -4.754,-7.495c-1.002,-2.388 -1.511,-5.426 -1.511,-9.076l0,-66.914l22.057,0l0,59.733c0,4.787 1.955,7.181 5.914,7.181l15.575,0c1.852,0 3.46,-0.607 4.809,-1.847c1.299,-1.051 1.949,-2.296 1.949,-3.758l0,-61.309l21.879,0l0,98.713c-0.125,7.306 -1.999,13.155 -5.611,17.59c-3.666,4.435 -8.681,6.704 -15.077,6.818l-51.495,0l0,-22.669l44.033,0"/>
  <path fill="#008ac9" d="M407.752,120.642l39.311,0c3.596,-0.125 5.464,-1.565 5.578,-4.327l0,-2.037c0,-0.59 -0.179,-1.245 -0.525,-1.949c-0.878,-1.711 -1.955,-2.562 -3.239,-2.562l-19.49,0c-5.784,-0.113 -10.718,-2.106 -14.866,-5.951c-4.197,-3.553 -6.347,-7.923 -6.471,-13.052l0,-16.901c0.227,-13.187 7.392,-19.897 21.505,-20.135l45.593,0l0,22.664l-38.629,0c-4.533,0 -6.818,1.391 -6.818,4.164l0,2.194c0,2.875 2.334,4.316 6.986,4.316l19.431,0c5.177,0.119 9.59,2.101 13.268,5.968c3.715,3.893 5.642,8.524 5.762,13.901l0,16.534c-0.12,4.646 -2.269,9.282 -6.402,13.907c-2.014,2.269 -4.077,3.828 -6.141,4.711c-2.133,0.812 -5.031,1.224 -8.729,1.224l-46.124,0l0,-22.669"/>
  <path fill="#008ac9" d="M512.899,116.152c0,1.295 0.596,2.318 1.787,3.087c1.029,0.921 2.345,1.403 3.98,1.403l16.978,0c3.829,0 5.805,-1.484 5.919,-4.49l0,-6.325c0,-3.455 -2.047,-5.199 -6.103,-5.199l-16.794,0c-2.204,0 -3.725,0.368 -4.57,1.062c-0.785,0.817 -1.197,2.436 -1.197,4.836l0,5.626Zm28.664,-34.859c0.098,-3.39 -1.879,-5.01 -5.957,-4.901l-44.423,0l0,-22.664l50.044,0c14.557,0.238 21.96,7.278 22.188,21.18l0,47.412c-0.119,5.995 -1.972,10.94 -5.513,14.871c-3.699,4.073 -8.508,6.12 -14.4,6.12l-30.267,0c-14.709,-0.125 -22.177,-6.845 -22.382,-20.205l0,-18.294c0.097,-13.961 7.224,-21.055 21.353,-21.299l29.357,0l0,-2.22"/>
  <path fill="#008ac9" d="M581.351,40.877c0.135,-6.12 2.388,-11.031 6.807,-14.714c4.289,-3.742 9.921,-5.665 16.886,-5.773l14.009,0l0,21.895l-8.486,0c-4.662,0.108 -7.04,2.339 -7.143,6.65l0,4.798l15.629,0l0,22.686l-15.629,0l0,66.903l-22.073,0l0,-102.445"/>
  <path fill="#008ac9" d="M681.797,80.87l0,-0.525c0,-1.164 -0.471,-2.155 -1.419,-2.892c-1.029,-0.715 -2.285,-1.061 -3.796,-1.061l-15.358,0c-1.971,0 -3.558,0.552 -4.787,1.684c-1.528,1.045 -2.302,2.421 -2.302,4.116l0,9.098l27.662,-10.42Zm-27.31,32.038l0,1.414c0,1.814 0.471,3.255 1.43,4.3c0.693,1.337 1.624,2.02 2.864,2.02l45.323,0l0,22.669l-48.187,0c-4.398,0 -7.826,-0.412 -10.246,-1.235c-2.649,-0.872 -5.026,-2.296 -7.1,-4.278c-2.426,-2.399 -4.078,-4.841 -4.907,-7.354c-0.909,-2.621 -1.359,-6.098 -1.359,-10.431l-0.189,-45.365c0.243,-13.707 7.403,-20.682 21.472,-20.92l29.742,0c13.739,0.238 20.698,7.457 20.92,21.694l0,17.92l-49.763,19.566"/>
  <path fill="#008ac9" d="M750.953,143.311c-3.341,0 -6.39,-0.309 -9.158,-0.872c-2.897,-0.471 -5.783,-1.814 -8.735,-4.083c-3.027,-2.638 -5.123,-5.594 -6.271,-8.86c-1.213,-3.211 -1.798,-6.851 -1.798,-10.945l0,-42.3c-0.124,-3.45 0.222,-6.477 1.029,-9.104c0.742,-2.621 2.302,-5.188 4.657,-7.7c2.687,-2.638 5.427,-4.392 8.319,-5.253c2.783,-0.699 5.919,-1.051 9.433,-1.051l33.815,0l0,5.302l-33.029,0c-5.833,0 -10.414,1.197 -13.766,3.596c-3.428,2.615 -5.178,7.126 -5.178,13.484l0,42.328c0,2.978 0.455,5.876 1.36,8.67c0.926,2.746 2.469,5.155 4.684,7.262c2.404,1.825 4.798,2.962 7.132,3.428c2.432,0.536 5.042,0.791 7.809,0.791l31.519,0l0,5.307l-31.822,0"/>
  <path fill="#008ac9" d="M869.211,88.43l-44.331,0c-5.307,0.119 -9.466,1.76 -12.461,4.923c-3.098,3.211 -4.63,7.614 -4.63,13.208l0,13.501c0,2.616 0.27,5.01 0.834,7.165c0.557,2.269 1.949,4.294 4.148,6.033c3.829,3.173 8.069,4.744 12.705,4.744l26.86,0c11.227,-0.119 16.875,-6.033 16.875,-17.774l0,-31.8Zm5.269,30.479c0,3.406 -0.26,6.395 -0.698,9.027c-0.715,2.86 -2.183,5.616 -4.408,8.237c-4.631,4.88 -10.371,7.257 -17.222,7.138l-26.357,0c-6.85,0 -12.401,-2.047 -16.701,-6.12c-4.392,-4.023 -6.618,-9.617 -6.618,-16.793l0,-13.636c0.222,-15.386 7.885,-23.265 22.983,-23.623l43.915,0l0,-5.967c0,-4.918 -1.425,-9.223 -4.257,-12.927c-1.798,-2.405 -3.926,-4.013 -6.342,-4.842c-2.442,-0.639 -5.182,-0.958 -8.236,-0.958l-47.906,0l0,-5.302l45.414,0c4.154,0 7.907,0.292 11.308,0.867c1.749,0.346 3.336,1.028 4.803,2.014c1.555,0.937 3.006,2.307 4.349,4.105c4.073,5.253 6.06,11.313 5.973,18.136l0,40.644"/>
  <path fill="#008ac9" d="M924.054,58.445c-12.293,0.227 -18.353,6.937 -18.126,20.14l0,64.726l-5.28,0l0,-64.704c-0.249,-16.983 7.836,-25.464 24.256,-25.464l5.87,0l0,5.302l-6.72,0"/>
  <path fill="#008ac9" d="M1013.36,58.472l-41.786,0c-3.011,0 -5.708,0.336 -8.139,0.975c-2.545,0.574 -5.004,2.117 -7.306,4.63c-2.204,2.291 -3.59,4.56 -4.17,6.829c-0.774,2.291 -1.126,5.036 -1.001,8.237l0,41.266c0,6.861 1.987,11.529 6.016,14.037c1.988,1.164 4.17,2.036 6.618,2.621c2.437,0.65 5.155,0.969 8.15,0.969l18.272,0c6.824,0 12.407,-1.57 16.696,-4.738c4.311,-2.973 6.504,-8.102 6.65,-15.413l0,-59.413Zm5.275,59.776c-0.466,17.08 -9.504,25.453 -27.11,25.101l-19.588,0c-4.137,0 -7.836,-0.363 -11.107,-1.051c-3.368,-0.872 -6.591,-2.924 -9.694,-6.125c-2.334,-2.875 -3.834,-5.783 -4.435,-8.762c-0.807,-2.973 -1.159,-6.282 -1.034,-9.894l0,-38.51c0.227,-17.345 8.962,-25.967 26.227,-25.837l41.466,0l0,-29.238l5.275,0l0,94.316"/>
  <path fill="#e3001b" d="M14.842,50.322c1.733,-0.764 3.466,-1.36 5.199,-1.733c3.184,-15.207 16.652,-26.612 32.796,-26.612c16.154,0 29.628,11.421 32.807,26.622c4.955,0.943 9.055,2.946 12.25,5.93c0.13,-2.919 0.011,-5.729 -0.336,-8.377c-2.042,-22.973 -21.305,-41.001 -44.792,-41.001c-24.18,0 -43.865,19.165 -44.889,43.123c-0.14,2.069 -0.184,4.225 -0.108,6.477c2.031,-1.711 4.349,-3.249 7.073,-4.429"/>
  <path fill="#e3001b" d="M79.086,53.728l-53.884,0c-2.594,0 -5.281,0.601 -8.048,1.841c-2.67,1.164 -4.858,2.573 -6.612,4.257c-3.341,4.018 -5.053,9.894 -5.172,17.627l0,42.122c0.119,7.749 1.831,13.62 5.172,17.616c1.754,1.712 3.942,3.12 6.612,4.295c2.767,1.213 5.454,1.825 8.048,1.825l53.884,0c13.918,-0.125 20.996,-7.76 21.218,-22.853l0,-43.888c-0.222,-15.114 -7.3,-22.723 -21.218,-22.842"/>
</svg>
