<svg width="568" height="205" viewBox="0 0 568 205" xmlns="http://www.w3.org/2000/svg"><defs><linearGradient x1=".018%" y1="49.967%" x2="100.002%" y2="49.967%" id="a"><stop stop-color="#872166" offset="0%"/><stop stop-color="#4F2455" offset="100%"/></linearGradient></defs><path d="m451.7 19.7 47.2-8.4v181.1h-47.2V19.7Zm68.9 0v172.6h47.2v-181l-47.2 8.4Zm-136 172.6h47.2V59.9h-47.2v132.4ZM72.7 78.6c-6-.4-19.8-1.3-19.8-13.7 0-15 19.9-15 27.3-15 13.1 0 30.1 3.9 42.2 7.5 0 0 6.8 2.4 12.5 4.8l.5.1v-41l-.7-.2c-14.3-5-30.9-9.8-61.8-9.8-53.2 0-72 31-72 57.5 0 15.3 6.6 51.3 67.5 55.5 5.2.3 18.9 1.1 18.9 14 0 10.6-11.2 16.9-30.1 16.9-20.7 0-40.7-5.3-52.9-10.3v42.3c18.2 4.8 38.8 7.2 62.9 7.2 52 0 75.3-29.3 75.3-58.4 0-33-26-54.4-69.8-57.4ZM358 58c-43.6 1.4-65.7 21-65.7 59.9v74.5h47.6v-60.8c0-23.3 3-33.3 30.7-34.2V58.6c-4.8-.9-12.6-.6-12.6-.6Zm-128 1.8c-1 2.6-8.6 24-26.9 46.1V11.3l-48.7 9.6v171.4h48.7v-53c14.1 21.2 21.1 53 21.1 53h58.3c-5.8-24-31-68.2-31-68.2 22.6-28.7 32.6-59.3 34.2-64.4H230v.1Zm178.1-12.6c12.8 0 23.3-10.4 23.3-23.2C431.4 11.2 421 .7 408.1.7c-12.8 0-23.2 10.4-23.2 23.3 0 12.8 10.4 23.2 23.2 23.2Z" transform="translate(0 5)" fill="url(#a)"/></svg>