<svg viewBox="0 0 243 117" version="1.1" xmlns="http://www.w3.org/2000/svg">
    <g fill="#000">
        <path d="M151.01,63.15l-4.56,7.69l-7.17,0l7.92,-12.89l-7.11,-11.49l6.84,0l4,6.77l4,-6.77l6.9,0l-7.24,11.49l7.93,12.89l-7,0l-4.51,-7.69Z"/>
        <path d="M161.79,64.24l6.39,0c0.4,1.67 1.63,2.42 3.63,2.42c2,0 2.79,-0.65 2.79,-1.74c0,-1.36 -2.14,-1.53 -4.59,-1.84c-3.4,-0.44 -7.41,-1.18 -7.41,-5.88c0,-3.84 3,-6.52 8.6,-6.52c5.92,0 8.57,2.65 9.18,6.59l-6.08,0c-0.28,-1.36 -1.3,-2.1 -3.17,-2.1c-1.87,0 -2.58,0.71 -2.58,1.66c0,1.22 1.67,1.43 4.59,1.8c3.4,0.44 7.48,1.29 7.48,5.88c0,3.95 -3,6.87 -9.11,6.87c-5.88,0 -9.08,-2.58 -9.72,-7.14Z"/>
        <path d="M182.42,61.45l0,-0.61c0,-6.7 4.15,-10.13 10,-10.13c5.85,0 9.93,3.54 9.93,10.13l0,0.61c0,6.56 -3.94,9.9 -10,9.9c-6.39,0 -9.93,-3.33 -9.93,-9.9Zm13.74,-0.06l0,-0.55c0,-3.23 -1.36,-4.89 -3.74,-4.89c-2.38,0 -3.84,1.59 -3.84,4.89l0,0.55c0,3 1.53,4.62 3.8,4.62c2.27,0 3.78,-1.53 3.78,-4.62Z"/>
        <rect x="204.96" y="44.66" width="6.26" height="26.18"/>
        <rect x="214.65" y="44.66" width="6.26" height="26.18"/>
        <path d="M236.52,67.54c-1.12,2.21 -3.26,3.81 -6.93,3.81c-4.29,0 -6.36,-2 -6.36,-5.31c-0.125,-1.982 0.873,-3.875 2.58,-4.89c1.57,-1 3,-1.26 6.19,-1.77c3,-0.41 4.21,-0.75 4.21,-2c0,-1.25 -0.67,-1.9 -2.78,-1.9c-2.11,0 -3.23,1 -3.3,2.86l-6.29,0c0.31,-4.59 3.43,-7.62 9.59,-7.62c6.52,0 8.87,3 8.87,7.55l0,12.58l-5.1,0l-0.68,-3.31Zm-0.27,-4.62l0,-1.19c-0.807,0.491 -1.711,0.801 -2.65,0.91c-1.052,0.079 -2.075,0.383 -3,0.89c-0.522,0.345 -0.832,0.935 -0.82,1.56c0,1.16 0.79,1.74 2.28,1.74c2.205,0.05 4.069,-1.705 4.15,-3.91l0.04,0Z"/>
    </g>
    <g fill="#f6faff" >
        <rect fill="#ff005b" x="0" y="0" width="116.04" height="116.04"/>
        <path d="M83.29,60.37c-0.01,0 -0.02,0 -0.03,0c-1.904,0 -3.47,1.566 -3.47,3.47c0,1.903 1.566,3.47 3.47,3.47c1.9,0 3.464,-1.56 3.47,-3.46c0,-1.894 -1.546,-3.458 -3.44,-3.48m0,10.71c-3.972,0 -7.24,-3.268 -7.24,-7.24c0,-3.972 3.268,-7.24 7.24,-7.24c3.972,0 7.24,3.268 7.24,7.24c0,0.003 0,0.007 0,0.01c-0.011,3.966 -3.274,7.225 -7.24,7.23"/>
        <rect x="53.45" y="76.8" width="3.77" height="13"/>
        <rect x="58.91" y="76.8" width="3.77" height="13"/>
        <path d="M74.68,32.61l3.7,-3.71l-2.69,-2.66l-3.68,3.7l-2.69,2.67l4.78,4.77l-3.68,3.64l2.67,2.69l6.37,-6.38l-4.78,-4.72Z"/>
        <path d="M32.52,63.78l1.77,3.07l-3.57,0l1.8,-3.07Zm0,-7.18l-8,13.85l16,0l-8,-13.85Z"/>
        <path d="M49.22,30.29l-2.7,-2.68l-4.61,4.6l-4.61,-4.6l-2.66,2.68l4.61,4.58l-4.61,4.61l2.66,2.69l4.61,-4.61l4.61,4.61l2.66,-2.69l-4.6,-4.61l4.64,-4.58Z"/>
    </g>
</svg>
